<svg width="26" height="26" viewBox="0 0 26 26" fill="none" xmlns="http://www.w3.org/2000/svg">
<path d="M11.25 15.25L8.53125 12.5312C8.30208 12.3021 8.01542 12.1925 7.67125 12.2025C7.32708 12.2125 7.04083 12.3325 6.8125 12.5625C6.58333 12.7917 6.46875 13.0833 6.46875 13.4375C6.46875 13.7917 6.58333 14.0833 6.8125 14.3125L10.375 17.875C10.6042 18.1042 10.8958 18.2188 11.25 18.2188C11.6042 18.2188 11.8958 18.1042 12.125 17.875L19.2188 10.7812C19.4479 10.5521 19.5575 10.2654 19.5475 9.92125C19.5375 9.57708 19.4175 9.29083 19.1875 9.0625C18.9583 8.83333 18.6667 8.71875 18.3125 8.71875C17.9583 8.71875 17.6667 8.83333 17.4375 9.0625L11.25 15.25ZM13 25.5C11.2708 25.5 9.64583 25.1717 8.125 24.515C6.60417 23.8583 5.28125 22.9679 4.15625 21.8438C3.03125 20.7188 2.14083 19.3958 1.485 17.875C0.829167 16.3542 0.500833 14.7292 0.5 13C0.5 11.2708 0.828333 9.64583 1.485 8.125C2.14167 6.60417 3.03208 5.28125 4.15625 4.15625C5.28125 3.03125 6.60417 2.14083 8.125 1.485C9.64583 0.829167 11.2708 0.500833 13 0.5C14.7292 0.5 16.3542 0.828333 17.875 1.485C19.3958 2.14167 20.7188 3.03208 21.8438 4.15625C22.9688 5.28125 23.8596 6.60417 24.5162 8.125C25.1729 9.64583 25.5008 11.2708 25.5 13C25.5 14.7292 25.1717 16.3542 24.515 17.875C23.8583 19.3958 22.9679 20.7188 21.8438 21.8438C20.7188 22.9688 19.3958 23.8596 17.875 24.5162C16.3542 25.1729 14.7292 25.5008 13 25.5ZM13 23C15.7708 23 18.1304 22.0263 20.0788 20.0788C22.0271 18.1313 23.0008 15.7717 23 13C23 10.2292 22.0263 7.86958 20.0788 5.92125C18.1313 3.97292 15.7717 2.99917 13 3C10.2292 3 7.86958 3.97375 5.92125 5.92125C3.97292 7.86875 2.99917 10.2283 3 13C3 15.7708 3.97375 18.1304 5.92125 20.0788C7.86875 22.0271 10.2283 23.0008 13 23Z" fill="#DCB4A0"/>
</svg>
