<svg width="43" height="20" viewBox="0 0 43 20" fill="none" xmlns="http://www.w3.org/2000/svg">
<path d="M36.7499 5.9751C37.8499 5.9751 38.7653 6.10231 39.5 6.35276C40.2347 6.60718 40.824 6.96894 41.264 7.43803C41.708 7.91109 42.0184 8.48752 42.203 9.15936C42.3838 9.83517 42.478 10.5865 42.478 11.4134V19.2607C41.9398 19.376 41.2012 19.5191 40.2504 19.6781C39.3036 19.8372 38.1525 19.9206 36.797 19.9206C35.9484 19.9206 35.1784 19.8411 34.483 19.6901C33.7915 19.543 33.1982 19.2886 32.6914 18.9467C32.1925 18.6008 31.8114 18.1437 31.5442 17.5911C31.2731 17.0306 31.1435 16.3468 31.1435 15.5398C31.1435 14.7606 31.2928 14.1007 31.6071 13.564C31.9135 13.0194 32.3261 12.5941 32.8407 12.2721C33.3633 11.9501 33.9486 11.7195 34.6165 11.5764C35.2844 11.4333 35.9759 11.3617 36.6949 11.3617C37.1781 11.3617 37.6063 11.3816 37.9796 11.4253C38.3607 11.469 38.6632 11.5207 38.895 11.5883V11.2345C38.895 10.5905 38.7025 10.0816 38.3175 9.69205C37.9364 9.30247 37.2724 9.11165 36.3177 9.11165C35.6812 9.11165 35.0566 9.15538 34.4437 9.24681C33.8229 9.34222 33.2925 9.46943 32.8407 9.6364L32.3653 6.59923C32.5854 6.53165 32.8564 6.45612 33.1786 6.38456C33.5086 6.30903 33.8622 6.24145 34.2394 6.18579C34.6244 6.12219 35.033 6.07448 35.4534 6.03473C35.8855 5.99895 36.3138 5.9751 36.7499 5.9751ZM37.0485 17.0107C37.4178 17.0107 37.7674 17.0067 38.1014 16.9829C38.4353 16.9669 38.6986 16.9391 38.9029 16.9073V14.0451C38.7536 14.0133 38.5296 13.9775 38.2271 13.9457C37.9246 13.9139 37.6535 13.894 37.406 13.894C37.0524 13.894 36.7224 13.9139 36.4159 13.9576C36.1095 14.0013 35.8384 14.0848 35.6027 14.2001C35.3669 14.3154 35.1862 14.4784 35.0487 14.6811C34.9151 14.8878 34.8523 15.1383 34.8523 15.4404C34.8523 16.0288 35.0448 16.4422 35.4416 16.6688C35.8266 16.8994 36.3649 17.0107 37.0485 17.0107Z" fill="#A9A9A9"/>
<path d="M27.1125 11.6479C27.0968 11.3259 27.0457 11.0158 26.9515 10.7097C26.8572 10.4036 26.7157 10.1373 26.5232 9.89877C26.3346 9.6682 26.091 9.47341 25.8003 9.31837C25.5096 9.16731 25.1442 9.09177 24.712 9.09177C24.2956 9.09177 23.9341 9.15936 23.6395 9.30644C23.337 9.44956 23.0855 9.64037 22.8852 9.87492C22.6887 10.1055 22.5316 10.3798 22.4255 10.6978C22.3155 11.0079 22.2369 11.3259 22.1858 11.6479H27.1125ZM18.3592 13.091C18.3592 11.9063 18.536 10.8727 18.8974 9.98623C19.255 9.09973 19.7264 8.36428 20.3157 7.77196C20.8972 7.1836 21.569 6.73439 22.3273 6.42829C23.0895 6.12616 23.8674 5.9751 24.6649 5.9751C26.535 5.9751 28.0122 6.54755 29.0966 7.70835C30.1809 8.8612 30.7231 10.5666 30.7231 12.8087C30.7231 13.0234 30.7113 13.2659 30.6956 13.5322C30.6799 13.7906 30.6642 14.0212 30.6484 14.2279H22.1858C22.2683 15.0031 22.6298 15.6193 23.2623 16.0725C23.8909 16.5297 24.7395 16.7563 25.8082 16.7563C26.4957 16.7563 27.1675 16.6926 27.8236 16.5654C28.4837 16.4382 29.0219 16.2872 29.4384 16.0963L29.9373 19.1653C29.7409 19.2647 29.4698 19.3641 29.1359 19.4674C28.8019 19.5668 28.4326 19.6583 28.0279 19.7378C27.6154 19.8133 27.1793 19.8729 26.7118 19.9286C26.2482 19.9763 25.7807 20.0041 25.3092 20.0041C24.1267 20.0041 23.0973 19.8252 22.2212 19.4714C21.3451 19.1176 20.6222 18.6326 20.0446 18.0164C19.471 17.4003 19.0428 16.6728 18.7678 15.826C18.4928 14.9793 18.3592 14.0649 18.3592 13.091Z" fill="#A9A9A9"/>
<path d="M17.5656 19.2129C17.2316 19.3123 16.8505 19.4116 16.4144 19.5031C15.9823 19.5985 15.5305 19.678 15.0511 19.7456C14.5758 19.8132 14.0925 19.8648 13.6014 19.9086C13.1064 19.9523 12.6389 19.9722 12.1831 19.9722C11.0988 19.9722 10.1362 19.8132 9.28368 19.4912C8.43506 19.1692 7.7161 18.712 7.13071 18.1117C6.54925 17.5154 6.10136 16.7879 5.79099 15.9332C5.48454 15.0785 5.32739 14.1244 5.32739 13.063C5.32739 11.9817 5.46097 11.0078 5.72813 10.1371C5.99529 9.26655 6.38031 8.53111 6.87926 7.92288C7.37822 7.31067 7.99504 6.84953 8.71794 6.52753C9.44083 6.2095 10.2737 6.04651 11.2088 6.04651C11.7235 6.04651 12.1871 6.09819 12.5996 6.19758C13.0042 6.29696 13.4168 6.44007 13.8411 6.63089V2.89406C13.8411 1.55039 14.784 0.461141 16.0923 0.242497L17.5656 0V19.2129ZM9.13439 12.8841C9.13439 14.0489 9.39369 14.9871 9.91229 15.6947C10.4348 16.4063 11.197 16.7601 12.2146 16.7601C12.5485 16.7601 12.8589 16.7482 13.1417 16.7243C13.4246 16.6965 13.6564 16.6726 13.845 16.6329V9.77142C13.6093 9.62433 13.3028 9.49712 12.9296 9.39376C12.5564 9.29437 12.1753 9.2427 11.7942 9.2427C10.0223 9.23872 9.13439 10.4552 9.13439 12.8841Z" fill="#A9A9A9"/>
<path d="M4.54556 19.646H0.817139V8.94435C0.817139 7.5967 1.76005 6.51938 3.07226 6.29279L4.54556 6.05029V19.646Z" fill="#A9A9A9"/>
<path fill-rule="evenodd" clip-rule="evenodd" d="M4.52594 4.21008C3.79126 5.24367 2.36904 5.47425 1.35541 4.73085C0.333929 3.98746 0.10606 2.54839 0.840743 1.52274C1.5715 0.489152 2.99372 0.258582 4.01127 1.00197C5.03276 1.74536 5.26063 3.17649 4.52594 4.21008Z" fill="#A9A9A9"/>
</svg>
